<svg width="142" height="24" viewBox="0 0 142 24" fill="none" xmlns="http://www.w3.org/2000/svg">
<path d="M104.24 0C110.762 0 115.065 3.5747 115.76 9.33546H110.464C109.934 6.25658 107.484 4.63566 104.306 4.63566C100.234 4.63566 97.554 7.18405 97.554 11.9844C97.554 16.8177 100.236 19.3661 104.306 19.3661C107.484 19.3661 109.934 17.7105 110.464 14.6316H115.76C115.065 20.4253 110.762 24 104.24 24C96.8258 24 92.2578 18.8027 92.2578 11.9844C92.2578 5.19734 96.8258 0 104.24 0Z" fill="#8311F9"/>
<path d="M12.2462 12.0485V10.724C14.7287 10.5246 17.8405 10.4258 17.8405 6.05714C17.8405 1.45616 14.6958 0.331055 8.20688 0.331055H5.577L0 5.90805V23.6671H8.60734C14.6975 23.6671 19.5637 22.7725 19.5637 17.4764C19.562 12.5131 15.7879 12.182 12.2462 12.0485ZM5.29443 4.96497H8.86911C11.0205 4.96497 12.5444 4.96498 12.5444 7.08344C12.5444 9.2019 11.0222 9.2019 8.86911 9.2019H5.29443V4.96497ZM9.26784 19.0332H5.29615V13.8358H9.26784C12.4126 13.8358 14.2658 13.8358 14.2658 16.4501C14.2658 19.0332 12.4126 19.0332 9.26784 19.0332Z" fill="#8311F9"/>
<path d="M40.1196 13.4076H36.7096V12.0831C39.5233 11.752 42.6351 10.6928 42.6351 6.85287C42.6351 1.62259 37.8018 0.331055 32.2404 0.331055H28.6224L23.2031 5.7503V23.6688H28.4993V15.4585H37.6354V23.6688H42.9315V16.2213C42.9333 14.401 41.9416 13.4076 40.1196 13.4076ZM32.2421 10.8263H28.501V4.96671H32.2421C35.3869 4.96671 37.3407 4.96671 37.3407 7.9121C37.3389 10.8263 35.3869 10.8263 32.2421 10.8263Z" fill="#8311F9"/>
<path d="M63.5575 4.96497V0.331055H51.6702L46.9062 5.09326V23.6671H63.5575V19.0332H52.2024V14.3004H61.9019V9.66477H52.2024V4.96497H63.5575Z" fill="#8311F9"/>
<path d="M136.418 0.332031V9.99687H124.698V0.332031H123.324L119.402 4.25344V23.6681H124.698V14.6325H136.418V23.6681H138.434L141.714 20.3898V0.332031H136.418Z" fill="#8311F9"/>
<path d="M83.1858 0.331055H72.2624L65.543 23.6688H69.903L71.2933 22.2785L72.9905 16.1866H82.4577L84.5762 23.6671H85.4049L88.9223 20.1496L83.1858 0.331055ZM74.2821 11.5527L77.0628 1.65553H78.3872L81.1679 11.5527H74.2821Z" fill="#8311F9"/>
</svg>
